<?xml version="1.0" encoding="UTF-8" standalone="no"?>
<svg xmlns="http://www.w3.org/2000/svg" viewBox="0 0 500 500" width="500" height="500">
  <!-- 圆形背景 -->
  <circle cx="250" cy="250" r="250" fill="#000" />
  
  <!-- 矩阵样式背景 -->
  <g fill="#00ff00" fill-opacity="0.6">
    <!-- 随机排列的数字和字符 - 模拟矩阵特效 -->
    <text x="30" y="50" font-family="monospace" font-size="20">10101001</text>
    <text x="160" y="80" font-family="monospace" font-size="24">01110</text>
    <text x="260" y="40" font-family="monospace" font-size="18">110011</text>
    <text x="380" y="70" font-family="monospace" font-size="22">00101</text>
    <text x="70" y="120" font-family="monospace" font-size="26">10010</text>
    <text x="200" y="130" font-family="monospace" font-size="20">01001</text>
    <text x="320" y="110" font-family="monospace" font-size="20">11100</text>
    <text x="50" y="180" font-family="monospace" font-size="24">00111</text>
    <text x="180" y="190" font-family="monospace" font-size="18">10110</text>
    <text x="290" y="170" font-family="monospace" font-size="22">01010</text>
    <text x="400" y="160" font-family="monospace" font-size="20">11001</text>
    <text x="40" y="230" font-family="monospace" font-size="20">01101</text>
    <text x="150" y="250" font-family="monospace" font-size="24">10100</text>
    <text x="260" y="220" font-family="monospace" font-size="22">00011</text>
    <text x="370" y="240" font-family="monospace" font-size="18">11010</text>
    <text x="80" y="290" font-family="monospace" font-size="20">01100</text>
    <text x="190" y="310" font-family="monospace" font-size="26">10011</text>
    <text x="300" y="280" font-family="monospace" font-size="20">00110</text>
    <text x="410" y="300" font-family="monospace" font-size="24">11001</text>
    <text x="60" y="350" font-family="monospace" font-size="18">01001</text>
    <text x="170" y="370" font-family="monospace" font-size="22">10010</text>
    <text x="280" y="340" font-family="monospace" font-size="20">00101</text>
    <text x="390" y="360" font-family="monospace" font-size="24">11100</text>
    <text x="50" y="410" font-family="monospace" font-size="20">01110</text>
    <text x="160" y="430" font-family="monospace" font-size="18">10001</text>
    <text x="270" y="400" font-family="monospace" font-size="22">00010</text>
    <text x="380" y="420" font-family="monospace" font-size="20">11101</text>
    <text x="100" y="460" font-family="monospace" font-size="24">01011</text>
    <text x="210" y="450" font-family="monospace" font-size="20">10100</text>
    <text x="320" y="470" font-family="monospace" font-size="22">00111</text>
  </g>
  
  <!-- 幽灵形象 - 简单的类似于Pacman幽灵的形状 -->
  <g>
    <!-- 幽灵身体 (白色) -->
    <path d="M190,240 
             C190,180 310,180 310,240 
             L310,320 
             L290,300 
             L270,320 
             L250,300 
             L230,320 
             L210,300 
             L190,320 Z" 
          fill="white" />
    
    <!-- 幽灵眼睛 (黑色) -->
    <ellipse cx="230" cy="240" rx="15" ry="15" fill="black" />
    <ellipse cx="270" cy="240" rx="15" ry="15" fill="black" />
    
    <!-- 幽灵眉毛 (给一种"坏脾气"的表情) -->
    <path d="M215,225 L240,230" stroke="black" stroke-width="3" />
    <path d="M260,230 L285,225" stroke="black" stroke-width="3" />
  </g>
</svg> 