<svg viewBox="0 0 64 64" xmlns="http://www.w3.org/2000/svg" id="Lemon--Streamline-Emoji" height="64" width="64"><desc>Lemon Streamline Emoji: https://streamlinehq.com</desc><path d="M11.693333333333332 60.48a16.799999999999997 2.1866666666666665 0 1 0 33.599999999999994 0 16.799999999999997 2.1866666666666665 0 1 0 -33.599999999999994 0Z" fill="#45413c" opacity=".15" stroke-width="1"></path><path d="M50.39999999999999 31.346666666666668a18.333333333333332 18.333333333333332 0 0 1 -0.72 -5.546666666666667 7.466666666666666 7.466666666666666 0 0 0 -2.2266666666666666 -5.573333333333332l-1.2533333333333332 -1.24a7.413333333333332 7.413333333333332 0 0 0 -5.56 -2.2266666666666666 18.479999999999997 18.479999999999997 0 0 1 -5.56 -0.7599999999999999c-7.493333333333333 -2.013333333333333 -15.64 1 -21.57333333333333 6.92s-8.933333333333334 14.12 -6.92 21.626666666666665a18.32 18.32 0 0 1 0.7066666666666667 5.546666666666667 7.533333333333333 7.533333333333333 0 0 0 2.2399999999999998 5.573333333333332l1.24 1.24a7.466666666666666 7.466666666666666 0 0 0 5.573333333333332 2.2266666666666666 18.439999999999998 18.439999999999998 0 0 1 5.546666666666667 0.72c7.506666666666666 2.013333333333333 15.653333333333332 -1 21.57333333333333 -6.92s8.933333333333334 -14.08 6.933333333333334 -21.586666666666666Z" fill="#ffe500" stroke-width="1"></path><path d="M13.506666666666668 29.626666666666665c5.933333333333334 -5.92 14.08 -8.933333333333334 21.57333333333333 -6.92a18.479999999999997 18.479999999999997 0 0 0 5.56 0.72 7.413333333333332 7.413333333333332 0 0 1 5.56 2.2266666666666666l1.2533333333333332 1.24a7.466666666666666 7.466666666666666 0 0 1 2.2266666666666666 5.573333333333332 18.386666666666663 18.386666666666663 0 0 0 0.72 5.546666666666667c0.12 0.48 0.22666666666666668 0.96 0.31999999999999995 1.4533333333333334a19.186666666666667 19.186666666666667 0 0 0 -0.31999999999999995 -8.12 18.333333333333332 18.333333333333332 0 0 1 -0.72 -5.546666666666667 7.466666666666666 7.466666666666666 0 0 0 -2.2266666666666666 -5.573333333333332l-1.2533333333333332 -1.24a7.413333333333332 7.413333333333332 0 0 0 -5.56 -2.2266666666666666 18.479999999999997 18.479999999999997 0 0 1 -5.56 -0.7599999999999999c-7.493333333333333 -2.013333333333333 -15.64 1 -21.57333333333333 6.92C8 28.506666666666664 4.973333333333333 36 6.253333333333334 43.093333333333334a25.546666666666667 25.546666666666667 0 0 1 7.253333333333334 -13.466666666666665Z" fill="#fff48c" stroke-width="1"></path><path d="M50.39999999999999 31.346666666666668a18.333333333333332 18.333333333333332 0 0 1 -0.72 -5.546666666666667 7.466666666666666 7.466666666666666 0 0 0 -2.2266666666666666 -5.573333333333332l-1.2533333333333332 -1.24a7.413333333333332 7.413333333333332 0 0 0 -5.56 -2.2266666666666666 18.479999999999997 18.479999999999997 0 0 1 -5.56 -0.7599999999999999c-7.493333333333333 -2.013333333333333 -15.64 1 -21.57333333333333 6.92s-8.933333333333334 14.12 -6.92 21.626666666666665a18.32 18.32 0 0 1 0.7066666666666667 5.546666666666667 7.533333333333333 7.533333333333333 0 0 0 2.2399999999999998 5.573333333333332l1.24 1.24a7.466666666666666 7.466666666666666 0 0 0 5.573333333333332 2.2266666666666666 18.439999999999998 18.439999999999998 0 0 1 5.546666666666667 0.72c7.506666666666666 2.013333333333333 15.653333333333332 -1 21.57333333333333 -6.92s8.933333333333334 -14.08 6.933333333333334 -21.586666666666666Z" fill="none" stroke="#45413c" stroke-linecap="round" stroke-linejoin="round" stroke-width="1"></path><path d="M44.36 20a19.746666666666666 19.746666666666666 0 0 1 8.786666666666665 -5.68c3.3066666666666666 -0.8933333333333333 4 1.1199999999999999 4.1866666666666665 2.6666666666666665a1.48 1.48 0 0 1 -1.3333333333333333 1.5866666666666664 21.333333333333332 21.333333333333332 0 0 0 -9.626666666666665 3.52c-1.8 0.13333333333333333 -2.013333333333333 -2.0933333333333333 -2.013333333333333 -2.0933333333333333Z" fill="#debb7e" stroke-width="1"></path><path d="M45.18666666666667 21.69333333333333a19.106666666666666 19.106666666666666 0 0 1 8 -4.813333333333333c2.2666666666666666 -0.6 3.3200000000000003 0.15999999999999998 3.813333333333333 1.1866666666666665a1.5199999999999998 1.5199999999999998 0 0 0 0.37333333333333335 -1.0933333333333333c-0.12 -1.5199999999999998 -0.88 -3.533333333333333 -4.1866666666666665 -2.6666666666666665A19.746666666666666 19.746666666666666 0 0 0 44.36 20a2.88 2.88 0 0 0 0.8266666666666667 1.6933333333333334Z" fill="#f0d5a8" stroke-width="1"></path><path d="M44.36 20a19.866666666666667 19.866666666666667 0 0 1 8.786666666666665 -5.68c3.3066666666666666 -0.88 4 1.1333333333333333 4.1866666666666665 2.6666666666666665a1.48 1.48 0 0 1 -1.3333333333333333 1.5866666666666664 21.46666666666667 21.46666666666667 0 0 0 -9.626666666666665 3.52c-1.8 0.12 -2.013333333333333 -2.0933333333333333 -2.013333333333333 -2.0933333333333333Z" fill="none" stroke="#45413c" stroke-linecap="round" stroke-linejoin="round" stroke-width="1"></path><path d="M44.42666666666666 20a12.133333333333333 12.133333333333333 0 0 0 -3.5866666666666664 -13.12 12.506666666666668 12.506666666666668 0 0 0 -14.053333333333331 -2.813333333333333 1.4266666666666667 1.4266666666666667 0 0 0 -0.8533333333333333 1.3333333333333333A13.333333333333332 13.333333333333332 0 0 0 30.946666666666665 16c5.266666666666667 4 10.653333333333332 -0.6133333333333333 13.479999999999999 4Z" fill="#6dd627" stroke-width="1"></path><path d="M26.786666666666665 8a12.533333333333333 12.533333333333333 0 0 1 14.053333333333331 2.76 12.666666666666666 12.666666666666666 0 0 1 4.066666666666666 7.333333333333333 12.239999999999998 12.239999999999998 0 0 0 -4.066666666666666 -11.280000000000001 12.506666666666668 12.506666666666668 0 0 0 -14.053333333333331 -2.7466666666666666 1.4266666666666667 1.4266666666666667 0 0 0 -0.8533333333333333 1.3333333333333333 15.613333333333333 15.613333333333333 0 0 0 0.3333333333333333 3.0266666666666664 1.4266666666666667 1.4266666666666667 0 0 1 0.52 -0.42666666666666664Z" fill="#5fff00" stroke-width="1"></path><path d="M44.42666666666666 20a12.133333333333333 12.133333333333333 0 0 0 -3.5866666666666664 -13.12 12.506666666666668 12.506666666666668 0 0 0 -14.053333333333331 -2.813333333333333 1.4266666666666667 1.4266666666666667 0 0 0 -0.8533333333333333 1.3333333333333333A13.333333333333332 13.333333333333332 0 0 0 30.946666666666665 16c5.266666666666667 4 10.653333333333332 -0.6133333333333333 13.479999999999999 4Z" fill="none" stroke="#45413c" stroke-linecap="round" stroke-linejoin="round" stroke-width="1"></path><path d="M44.42666666666666 20s0 -7.906666666666666 -7.413333333333332 -11.173333333333334" fill="none" stroke="#45413c" stroke-linecap="round" stroke-linejoin="round" stroke-width="1"></path></svg>